PathFileType	4	(X/Y/Z)	Patient4_TMGait_0pt7_01_left_02.trc.trc
DataRate	CameraRate	NumFrames	NumMarkers	Units	OrigDataRate	OrigDataStartFrame	OrigNumFrames
85.365853658537	85.365853658537	5	33	mm	85.365853658537	106	       141
Frame#	Time	Sacral			L.Shoulder			Chest			R.Shoulder			Neck			R.ASIS			L.ASIS			R.Thigh.Superior			R.Thigh.Lateral			R.Thigh.Inferior			R.Patella			L.Thigh.Superior			L.Thigh.Lateral			L.Thigh.Inferior			L.Patella			L.Shank.Superior			L.Shank.Lateral			L.Shank.Inferior			R.Shank.Superior			R.Shank.Lateral			R.Shank.Inferior			R.Heel			R.Midfoot.Superior			R.Midfoot.Lateral			R.Toe			L.Heel			L.Midfoot.Lateral			L.Midfoot.Superior			L.Toe			L.Elbow			L.Wrist			R.Elbow			R.Wrist			
		X1	Y1	Z1	X2	Y2	Z2	X3	Y3	Z3	X4	Y4	Z4	X5	Y5	Z5	X6	Y6	Z6	X7	Y7	Z7	X8	Y8	Z8	X9	Y9	Z9	X10	Y10	Z10	X11	Y11	Z11	X12	Y12	Z12	X13	Y13	Z13	X14	Y14	Z14	X15	Y15	Z15	X16	Y16	Z16	X17	Y17	Z17	X18	Y18	Z18	X19	Y19	Z19	X20	Y20	Z20	X21	Y21	Z21	X22	Y22	Z22	X23	Y23	Z23	X24	Y24	Z24	X25	Y25	Z25	X26	Y26	Z26	X27	Y27	Z27	X28	Y28	Z28	X29	Y29	Z29	X30	Y30	Z30	X31	Y31	Z31	X32	Y32	Z32	X33	Y33	Z33	

106	3.510000000000	687.455305569095	1014.114298132572	578.909361258009	897.636038225126	1426.979926054484	389.701381209882	999.061329359598	1350.351385030926	548.490363800302	930.883015024381	1437.784147806975	722.891651190570	910.936355905362	1489.475325540313	541.473772831885	914.734842581824	943.801470201930	692.524448830121	895.096632346994	962.143259299157	417.153116135343	940.468918343151	738.473467663779	663.773793511220	849.411336636882	634.996859393412	721.281093379190	923.485939296941	578.146458513483	642.863828071337	916.797598507067	492.740484892383	647.091173709440	983.371244376540	801.512373447130	444.919695409133	958.095286907343	675.937439068012	354.913541108120	1067.073552434940	624.896890848368	417.434931241167	1096.754862129847	543.731780058451	404.991330074708	1053.891528801782	466.397326861526	393.848393612380	938.314804294276	375.143922180123	345.035574429597	980.964635961254	248.369910137752	393.182543489050	888.873188202560	405.036102542742	652.490911837117	813.291725459917	301.342903185639	707.301106514871	858.765119254295	206.819403131944	645.287922268754	727.253929805653	43.193102287240	600.827502333707	893.678313250145	96.466495128573	653.380925682464	802.591060710075	36.681041348808	684.284187962675	1011.087803740623	42.770937008599	694.592832292117	835.702901166908	108.525564350182	432.859243534802	901.719283720841	96.906564442554	346.998453828814	995.197704064583	146.383513966687	366.203290555378	1110.212416164676	80.001857304130	325.540183637797	797.463955468582	1083.074730929685	298.081689420705	807.287889766271	823.893482579284	289.768216411531	1018.738721547353	1106.792546395563	838.710384700121	1249.736607242797	1099.365545214510	733.306000125064	
107	3.521714285714	686.275232101497	1014.449708350681	579.353786545612	897.168848250827	1426.492564111244	389.361242422734	998.727394804908	1349.720507676162	547.976776172888	931.203893093932	1437.700410620218	722.161764082807	910.813805744932	1489.129531484795	541.147830314371	913.263995125174	943.506086447741	692.574321839267	893.607669408858	961.732827002047	417.202683097449	936.979131122752	737.728449922000	664.018757474560	844.824357051311	634.972776707028	721.616874154869	918.199271892411	577.358703217793	643.320937323487	910.611913909825	492.228253147844	647.488689187164	981.463473331871	802.297436208482	445.626241796165	958.032652590631	676.930817032070	354.763233872406	1066.884379084308	626.945172052909	418.057210349220	1098.251530036761	547.358857153138	405.432232526889	1058.717157505483	469.457319308702	393.968532071470	948.623345362621	372.627768895146	343.667372666479	997.293998408160	247.840301734987	392.000320016959	882.319469658394	404.772774039084	652.773248900803	806.234853524867	301.389003512557	707.537503369876	851.212115602539	206.672976860074	645.434609086543	719.051251591181	43.293996301387	600.941369154968	885.510610250086	96.441752266079	653.505371818695	794.362975368698	36.697955216116	684.350902532908	1002.859291194650	42.520573691022	694.704886881068	859.097534024633	100.557261867149	429.872960839529	926.671314275505	92.384266894071	344.845579883193	1017.223978235824	146.487141021309	365.146272460365	1135.920298385721	86.006971317172	326.023246222594	792.569049762885	1083.867677638715	298.520817754509	791.211523967886	824.916513208801	289.180875540530	1027.503886344808	1110.628428484911	837.577582994371	1255.784644229701	1120.610258658241	728.233859674802	
108	3.533428571429	685.221661444837	1014.728440945184	579.569486048933	896.768757730802	1426.035050383017	388.876527471606	998.416193626136	1349.082702821104	547.334900510594	931.451374154477	1437.565429943171	721.263779670629	910.765009587661	1488.765934800782	540.873965338875	911.847050182416	943.191728307920	692.501622979883	892.327610019037	961.221476525873	417.145327713003	933.581933264001	736.971407774015	664.341166267843	840.224135846787	634.943667552124	721.862247794032	912.973434028936	576.568956964503	643.781564574672	904.481444353346	491.707739910160	647.864626655811	979.560343282142	802.696045701058	446.297516023609	957.755434079937	677.591329491756	354.559900867310	1066.325073223464	628.412285451521	418.613623880346	1099.185181538690	550.464284771614	405.958522609386	1062.930546197117	472.173964400064	394.267426274583	958.668846058533	370.202573109238	342.156539729390	1012.819891170066	247.701944613602	391.017336324026	875.781431134899	404.509894418443	653.009680374249	799.173819056760	301.461464504578	707.729282441631	843.662769504333	206.545121746653	645.566990849799	710.844698273911	43.393981277979	601.064054250253	877.341578858351	96.418578646102	653.624585209928	786.127847851747	36.720710539195	684.416866056086	994.623899030787	42.294053554602	694.813795227158	881.700497548911	93.641360189086	426.655578007192	950.983086664990	88.768259330187	342.780764438902	1038.358003237496	147.203215226531	364.473942554907	1160.443515028544	92.554339687004	327.496810086480	787.503545730212	1084.926333666908	298.569411427059	776.506660921237	826.625743339826	288.671407551217	1035.874479360952	1114.573022990706	836.297159012041	1260.427834081472	1140.905502430740	723.552710401467	
109	3.545142857143	684.301487062082	1014.951954205203	579.546255778372	896.414971273585	1425.615048077942	388.249338339062	998.114846538146	1348.464850669749	546.571851454086	931.614021035258	1437.407900644505	720.217168448355	910.779201854993	1488.404354772181	540.675833803099	910.516101420513	942.880395407040	692.329739196834	891.281873475648	960.632177653908	416.975766025429	930.274256146466	736.202974729147	664.711351710427	835.613382455763	634.916592595714	722.005334951839	907.800792479051	575.784330753811	644.225018346525	898.402262809149	491.181723004208	648.200103990858	977.739256682919	802.739680071392	446.912925097519	957.288107191777	677.910900462936	354.308616038874	1065.449150406666	629.275921477521	419.069934585854	1099.580749864427	553.008505991850	406.552305472373	1066.519782175977	474.500869687437	394.705368758908	968.306479363126	367.860994238753	340.568111017641	1027.389904547712	247.866464257794	390.238731932038	869.251972680129	404.246948496989	653.185017666960	792.102884552106	301.563680244012	707.866736027163	836.114378088294	206.438893841809	645.678713575234	702.634079176692	43.492474212564	601.191146236823	869.169655569616	96.395053996167	653.731123966359	777.885595691348	36.750502811492	684.477379774867	986.383236837417	42.092074373600	694.919255828027	903.278224763543	87.692189644321	423.360963945085	974.348505009623	85.967340411346	340.874315359799	1058.374224625985	148.413669857575	364.150115933888	1183.528344066956	99.471251410337	329.768982713749	782.332913957800	1086.236452764251	298.239005009458	763.219329083041	828.802993829321	288.234599479642	1043.779428010810	1118.587957582784	834.894078788245	1263.826892228417	1160.068552015887	719.264193206594	
110	3.556857142857	683.528328275704	1015.113177980023	579.277725527974	896.083637450673	1425.234394606855	387.483046371098	997.808828074354	1347.890724495983	545.695613571541	931.678428598722	1437.253215234240	719.043579510862	910.828751481694	1488.063258057638	540.554516160416	909.303889080847	942.585402001263	692.075336760687	890.495325627066	959.981644619809	416.687204008644	927.055814937072	735.421854921811	665.086371285239	831.007963762413	634.896508083182	722.035712872261	902.681206276258	575.009558572644	644.625064139125	892.378038364563	490.650690419696	648.476397562752	976.072565203024	802.455060928188	447.444413015497	956.654264236447	677.873748087426	354.013915065573	1064.308546000048	629.516316201709	419.401481151023	1099.469730082602	554.950913565757	407.188291641589	1069.475508344760	476.387661600455	395.226667918852	977.363113037689	365.572064282913	338.984394940680	1040.853873181658	248.216623184134	389.661607430614	862.732996807360	403.981540569948	653.287621965158	785.021940262226	301.696551417035	707.940939595296	828.567025527641	206.354283170663	645.764477328840	694.419912269151	43.589647964264	601.316925011735	860.994317042348	96.370841497095	653.820391223585	769.636494795352	36.788112730453	684.528127299510	978.138403893608	41.914389625887	695.021152071047	923.602759948828	82.579970804599	420.178242771258	996.439994883389	83.839548738862	339.203912413200	1077.042724960385	149.960876897152	364.119153959124	1204.916457047387	106.539729340087	332.577756854746	777.132103067806	1087.769055358947	297.553527299753	751.347537938273	831.251198480307	287.860220108261	1051.144720788507	1122.628751316932	833.395697323593	1266.145626476153	1177.952370035392	715.360102482249	
